<svg xmlns="http://www.w3.org/2000/svg" viewBox="0 0 756 739.69"><defs><style>.cls-1,.cls-6{fill:none;}.cls-1,.cls-2{stroke:maroon;stroke-miterlimit:10;}.cls-1{stroke-linecap:round;stroke-width:10px;}.cls-2,.cls-4{fill:#f66;}.cls-2{stroke-width:3px;}.cls-3{fill:#fff;}.cls-5{fill:maroon;}</style></defs><title>Asset 2</title><g id="Layer_2" data-name="Layer 2"><g id="Layer_1-2" data-name="Layer 1"><line class="cls-1" x1="146.54" y1="383.69" x2="96.54" y2="243.69"/><line class="cls-1" x1="550.46" y1="383.69" x2="600.46" y2="243.69"/><path class="cls-2" d="M448,13.11A11.61,11.61,0,0,0,436.38,1.5H286.61A11.61,11.61,0,0,0,275,13.11V37.19H448Z"/><path class="cls-3" d="M302.8,31.56a2.53,2.53,0,0,0,1.71-.58,2,2,0,0,0,.68-1.54h3.56a4.84,4.84,0,0,1-.79,2.65A5.18,5.18,0,0,1,305.84,34a6.67,6.67,0,0,1-3,.66,6.15,6.15,0,0,1-4.8-1.93,7.67,7.67,0,0,1-1.76-5.35v-.25a7.53,7.53,0,0,1,1.75-5.23,6.07,6.07,0,0,1,4.78-2,6,6,0,0,1,4.27,1.51,5.39,5.39,0,0,1,1.64,4h-3.56a2.63,2.63,0,0,0-.68-1.8,2.53,2.53,0,0,0-3.73.28,5.59,5.59,0,0,0-.68,3.13v.39a5.73,5.73,0,0,0,.67,3.16A2.31,2.31,0,0,0,302.8,31.56Z"/><path class="cls-3" d="M310.32,27.12a8.44,8.44,0,0,1,.81-3.76,6,6,0,0,1,2.35-2.56,6.85,6.85,0,0,1,3.54-.9,6.46,6.46,0,0,1,4.69,1.75,7,7,0,0,1,2,4.78l0,1a7.4,7.4,0,0,1-1.83,5.24,6.3,6.3,0,0,1-4.89,2,6.37,6.37,0,0,1-4.9-2,7.58,7.58,0,0,1-1.83-5.36Zm3.79.27a5.39,5.39,0,0,0,.76,3.1,2.73,2.73,0,0,0,4.33,0,5.77,5.77,0,0,0,.78-3.38A5.23,5.23,0,0,0,319.2,24,2.5,2.5,0,0,0,317,23,2.47,2.47,0,0,0,314.87,24,5.94,5.94,0,0,0,314.11,27.39Z"/><path class="cls-3" d="M327.14,34.35V22.94H325V20.16h2.11V19a4.93,4.93,0,0,1,1.37-3.71,5.34,5.34,0,0,1,3.84-1.31,8.65,8.65,0,0,1,1.93.26l0,2.94a4.81,4.81,0,0,0-1.16-.12c-1.42,0-2.14.67-2.14,2v1.14h2.82v2.78h-2.82V34.35Z"/><path class="cls-3" d="M336.77,34.35V22.94h-2.11V20.16h2.11V19a4.89,4.89,0,0,1,1.37-3.71A5.33,5.33,0,0,1,342,13.93a8.51,8.51,0,0,1,1.93.26l0,2.94a4.72,4.72,0,0,0-1.15-.12c-1.43,0-2.14.67-2.14,2v1.14h2.82v2.78h-2.82V34.35Z"/><path class="cls-3" d="M351.58,34.61a7,7,0,0,1-5.09-1.91,6.84,6.84,0,0,1-2-5.1v-.37a8.62,8.62,0,0,1,.83-3.83,6,6,0,0,1,2.34-2.59,6.55,6.55,0,0,1,3.46-.91,5.89,5.89,0,0,1,4.58,1.83,7.45,7.45,0,0,1,1.68,5.21v1.55h-9a3.51,3.51,0,0,0,1.11,2.23,3.33,3.33,0,0,0,2.34.84A4.08,4.08,0,0,0,355.25,30l1.86,2.09a5.67,5.67,0,0,1-2.31,1.88A7.55,7.55,0,0,1,351.58,34.61ZM351.14,23a2.38,2.38,0,0,0-1.83.77,4,4,0,0,0-.89,2.18h5.27v-.3a2.88,2.88,0,0,0-.68-2A2.46,2.46,0,0,0,351.14,23Z"/><path class="cls-3" d="M366.1,34.61A6.93,6.93,0,0,1,361,32.7a6.8,6.8,0,0,1-2-5.1v-.37a8.62,8.62,0,0,1,.82-3.83,6,6,0,0,1,2.34-2.59,6.57,6.57,0,0,1,3.46-.91,5.89,5.89,0,0,1,4.58,1.83,7.45,7.45,0,0,1,1.68,5.21v1.55h-9A3.51,3.51,0,0,0,364,30.72a3.33,3.33,0,0,0,2.34.84A4.08,4.08,0,0,0,369.77,30l1.87,2.09a5.74,5.74,0,0,1-2.31,1.88A7.59,7.59,0,0,1,366.1,34.61ZM365.67,23a2.35,2.35,0,0,0-1.83.77,3.91,3.91,0,0,0-.9,2.18h5.27v-.3a2.83,2.83,0,0,0-.68-2A2.45,2.45,0,0,0,365.67,23Z"/><path class="cls-3" d="M394.62,18.44h-5.85V34.35h-3.94V18.44h-5.77V15.25h15.56Z"/><path class="cls-3" d="M408.35,26.07H400.8v5.12h8.86v3.16h-12.8V15.25h12.78v3.19H400.8V23h7.55Z"/><path class="cls-3" d="M418,26.69l-2,2.2v5.46H412V15.25h3.94v8.66l1.73-2.38,4.87-6.28h4.84l-6.78,8.49,7,10.61h-4.69Z"/><polygon class="cls-4" points="304.58 38.69 289.21 204.69 337.62 204.69 342.6 38.69 304.58 38.69"/><polygon class="cls-5" points="190.5 38.69 144.1 204.69 192.67 204.69 228.53 38.69 190.5 38.69"/><polygon class="cls-5" points="266.55 38.69 241.13 204.69 289.21 204.69 304.58 38.69 266.55 38.69"/><polygon class="cls-4" points="228.53 38.69 192.67 204.69 241.13 204.69 266.55 38.69 228.53 38.69"/><polygon class="cls-4" points="152.48 38.69 96.12 204.69 144.1 204.69 190.5 38.69 152.48 38.69"/><polygon class="cls-5" points="114.45 38.69 47.62 204.69 96.12 204.69 152.48 38.69 114.45 38.69"/><polygon class="cls-5" points="570.75 38.69 627.11 204.69 675.38 204.69 608.78 38.69 570.75 38.69"/><polygon class="cls-4" points="532.73 38.69 578.84 204.69 627.11 204.69 570.75 38.69 532.73 38.69"/><polygon class="cls-5" points="494.7 38.69 530.56 204.69 578.84 204.69 532.73 38.69 494.7 38.69"/><polygon class="cls-5" points="418.65 38.69 434.62 204.69 482.62 204.69 456.68 38.69 418.65 38.69"/><polygon class="cls-4" points="380.63 38.69 385.75 204.69 434.62 204.69 418.65 38.69 380.63 38.69"/><polygon class="cls-4" points="456.68 38.69 482.62 204.69 530.56 204.69 494.7 38.69 456.68 38.69"/><polygon class="cls-5" points="342.6 38.69 337.62 204.69 385.75 204.69 380.63 38.69 342.6 38.69"/><path class="cls-5" d="M87.15,252.69H56.62a9,9,0,0,1-9-9v-39h48.5v39A9,9,0,0,1,87.15,252.69Z"/><path class="cls-4" d="M134.1,252.69h-29a9.17,9.17,0,0,1-9-9v-39h48v39C144.11,248.67,138.8,252.69,134.1,252.69Z"/><path class="cls-5" d="M183.15,252.69H153.62c-5,0-9.51-4-9.51-9v-39h48.56v39C192.67,248.67,188.11,252.69,183.15,252.69Z"/><path class="cls-4" d="M232.15,252.69H201.62a9,9,0,0,1-9-9v-39h48.46v39A9,9,0,0,1,232.15,252.69Z"/><path class="cls-5" d="M280.09,252.69h-29c-4.72,0-10-4-10-9v-39h48.08v39A9.27,9.27,0,0,1,280.09,252.69Z"/><path class="cls-4" d="M328.26,252.69H299.83c-4.63,0-10.62-4-10.62-9v-39h48.41v39C337.62,248.67,332.87,252.69,328.26,252.69Z"/><path class="cls-5" d="M376.64,252.69h-30a9,9,0,0,1-9-9v-39h48.13v39A9.09,9.09,0,0,1,376.64,252.69Z"/><path class="cls-4" d="M425.15,252.69H394.62a8.89,8.89,0,0,1-8.87-9v-39h48.87v39C434.62,248.67,430.11,252.69,425.15,252.69Z"/><path class="cls-5" d="M472.15,252.69H443.62a9,9,0,0,1-9-9v-39h48v39C482.62,248.67,477.11,252.69,472.15,252.69Z"/><path class="cls-4" d="M521.15,252.69H491.62a9,9,0,0,1-9-9v-39h47.94v39C530.56,248.67,526.11,252.69,521.15,252.69Z"/><path class="cls-5" d="M567.15,252.69H540.62c-5,0-10.06-4-10.06-9v-39h48.27v39C578.83,248.67,572.11,252.69,567.15,252.69Z"/><path class="cls-4" d="M618.15,252.69H587.62a8.82,8.82,0,0,1-8.79-9v-39h48.28v39A9,9,0,0,1,618.15,252.69Z"/><path class="cls-5" d="M666.15,252.69H637.62c-5,0-10.51-4-10.51-9v-39h48.27v39A9.2,9.2,0,0,1,666.15,252.69Z"/><rect class="cls-5" x="78.5" y="384.19" width="540" height="224"/><line class="cls-1" x1="72" y1="384.19" x2="625" y2="384.19"/><path class="cls-6" d="M606.28,581.25a25,25,0,0,1,6.55-2.72v-88a111.8,111.8,0,0,0-68.72,28.52Z"/><path class="cls-6" d="M544.11,686.31a111.87,111.87,0,0,0,68.72,28.53v-88a25,25,0,0,1-6.55-2.71Z"/><path class="cls-6" d="M597.56,590,535.38,527.8a111.8,111.8,0,0,0-28.52,68.72h88A24.5,24.5,0,0,1,597.56,590Z"/><path class="cls-6" d="M643.16,596.52h88a111.8,111.8,0,0,0-28.52-68.72L640.44,590A24.5,24.5,0,0,1,643.16,596.52Z"/><path class="cls-6" d="M594.84,608.86h-88a111.85,111.85,0,0,0,28.52,68.73l62.18-62.18A24.7,24.7,0,0,1,594.84,608.86Z"/><path class="cls-6" d="M625.17,626.85v88a111.87,111.87,0,0,0,68.72-28.53l-62.17-62.17A25,25,0,0,1,625.17,626.85Z"/><path class="cls-6" d="M640.44,615.41l62.18,62.18a111.85,111.85,0,0,0,28.52-68.73h-88A24.7,24.7,0,0,1,640.44,615.41Z"/><path class="cls-6" d="M693.89,519.07a111.8,111.8,0,0,0-68.72-28.52v88a25,25,0,0,1,6.55,2.72Z"/><path class="cls-4" d="M522.13,505.82A137,137,0,0,0,619,739.69v-274A136.08,136.08,0,0,0,522.13,505.82Zm13.25,22L597.56,590a24.5,24.5,0,0,0-2.72,6.54h-88A111.8,111.8,0,0,1,535.38,527.8Zm-28.52,81.06h88a24.7,24.7,0,0,0,2.72,6.55l-62.18,62.18A111.85,111.85,0,0,1,506.86,608.86Zm106,106a111.87,111.87,0,0,1-68.72-28.53l62.17-62.17a25,25,0,0,0,6.55,2.71Zm0-136.31a25,25,0,0,0-6.55,2.72l-62.17-62.18a111.8,111.8,0,0,1,68.72-28.52Z"/><path class="cls-5" d="M715.87,505.82A136.08,136.08,0,0,0,619,465.69v274a137,137,0,0,0,96.87-233.87Zm15.27,90.7h-88a24.5,24.5,0,0,0-2.72-6.54l62.18-62.18A111.8,111.8,0,0,1,731.14,596.52Zm-106-106a111.8,111.8,0,0,1,68.72,28.52l-62.17,62.18a25,25,0,0,0-6.55-2.72Zm0,224.29v-88a25,25,0,0,0,6.55-2.71l62.17,62.17A111.87,111.87,0,0,1,625.17,714.84Zm77.45-37.25-62.18-62.18a24.7,24.7,0,0,0,2.72-6.55h88A111.85,111.85,0,0,1,702.62,677.59Z"/><path class="cls-6" d="M71.67,648.33a14.24,14.24,0,0,1,3.77-1.57V596a64.47,64.47,0,0,0-39.63,16.44Z"/><path class="cls-6" d="M35.81,708.91a64.54,64.54,0,0,0,39.63,16.45V674.62a14.22,14.22,0,0,1-3.77-1.56Z"/><path class="cls-6" d="M66.63,653.36,30.78,617.5a64.57,64.57,0,0,0-16.45,39.63H65.07A14.22,14.22,0,0,1,66.63,653.36Z"/><path class="cls-6" d="M92.93,657.13h50.74a64.57,64.57,0,0,0-16.45-39.63L91.37,653.36A14.22,14.22,0,0,1,92.93,657.13Z"/><path class="cls-6" d="M65.07,664.25H14.33a64.54,64.54,0,0,0,16.45,39.63L66.63,668A14.22,14.22,0,0,1,65.07,664.25Z"/><path class="cls-6" d="M82.56,674.62v50.74a64.54,64.54,0,0,0,39.63-16.45L86.33,673.06A14.22,14.22,0,0,1,82.56,674.62Z"/><path class="cls-6" d="M91.37,668l35.85,35.86a64.54,64.54,0,0,0,16.45-39.63H92.93A14.22,14.22,0,0,1,91.37,668Z"/><path class="cls-6" d="M122.19,612.47A64.47,64.47,0,0,0,82.56,596v50.73a14.24,14.24,0,0,1,3.77,1.57Z"/><path class="cls-4" d="M23.14,604.83A79,79,0,0,0,79,739.69v-158A78.49,78.49,0,0,0,23.14,604.83Zm7.64,12.67,35.85,35.86a14.22,14.22,0,0,0-1.56,3.77H14.33A64.57,64.57,0,0,1,30.78,617.5ZM14.33,664.25H65.07A14.22,14.22,0,0,0,66.63,668L30.78,703.88A64.54,64.54,0,0,1,14.33,664.25Zm61.11,61.11a64.54,64.54,0,0,1-39.63-16.45l35.86-35.85a14.22,14.22,0,0,0,3.77,1.56Zm0-78.6a14.24,14.24,0,0,0-3.77,1.57L35.81,612.47A64.47,64.47,0,0,1,75.44,596Z"/><path class="cls-5" d="M134.86,604.83A78.49,78.49,0,0,0,79,581.69v158a79,79,0,0,0,55.86-134.86Zm8.81,52.3H92.93a14.22,14.22,0,0,0-1.56-3.77l35.85-35.86A64.57,64.57,0,0,1,143.67,657.13ZM82.56,596a64.47,64.47,0,0,1,39.63,16.44L86.33,648.33a14.24,14.24,0,0,0-3.77-1.57Zm0,129.33V674.62a14.22,14.22,0,0,0,3.77-1.56l35.86,35.85A64.54,64.54,0,0,1,82.56,725.36Zm44.66-21.48L91.37,668a14.22,14.22,0,0,0,1.56-3.77h50.74A64.54,64.54,0,0,1,127.22,703.88Z"/><rect class="cls-4" x="284.01" y="292.8" width="40.12" height="15.96" rx="7.98"/><rect class="cls-4" x="312.65" y="291.63" width="4.68" height="1.49"/><path class="cls-5" d="M325.94,326.92a2.74,2.74,0,0,0-2.92-2.83H285.13a2.74,2.74,0,0,0-2.92,2.83c.24,3.24.47,6.48.71,9.72h42.31Z"/><path class="cls-4" d="M325.66,336.43H282.49q.78,10.69,1.55,21.39h40.07Q324.88,347.13,325.66,336.43Z"/><path class="cls-5" d="M284.43,357.61q.69,9.54,1.39,19.09a3,3,0,0,0,2.75,2.83h31a3,3,0,0,0,2.75-2.83q.71-9.56,1.39-19.09Z"/><path class="cls-5" d="M313.37,349.17a9.79,9.79,0,0,1-2.8.36,9.6,9.6,0,0,1-1.41-.13l-.34-.08-.34-.08-.34-.1-.33-.11-.17-.06-.16-.07-.32-.13-.32-.16-.15-.07-.15-.09-.3-.17-.29-.19c-.2-.12-.38-.26-.56-.39l-.5-.38-.25-.17-.26-.17c-.18-.1-.35-.21-.54-.3l-.27-.13-.28-.12a7,7,0,0,0-1.17-.38,7.4,7.4,0,0,0-1.23-.16,7.88,7.88,0,0,0-2.5.28,9.13,9.13,0,0,0-1.21.42,7.25,7.25,0,0,0-1.14.59,7.74,7.74,0,0,1,1.08-.71,10,10,0,0,1,1.19-.56,8.25,8.25,0,0,1,2.57-.55,7.62,7.62,0,0,1,1.35,0,8.59,8.59,0,0,1,1.32.27l.33.1.32.12c.21.08.41.18.62.27l.3.16a2.85,2.85,0,0,1,.3.16l.58.34c.17.1.34.21.52.3l.27.14.28.12.14.06.14.05.28.1.28.09.14,0,.15,0a7.31,7.31,0,0,0,2.33.18,8.54,8.54,0,0,0,2.27-.54,10.18,10.18,0,0,0,1.06-.49l.5-.29.12-.09c-.62-2.63-5-4.67-10.35-4.67-5.76,0-10.43,2.38-10.43,5.32s4.67,5.32,10.43,5.32c4.5,0,8.34-1.46,9.8-3.5Z"/><rect class="cls-4" x="275.08" y="310.46" width="58" height="15.96" rx="7.98"/><rect class="cls-4" x="348.01" y="292.8" width="40.12" height="15.96" rx="7.98"/><rect class="cls-4" x="376.65" y="291.63" width="4.68" height="1.49"/><path class="cls-5" d="M389.94,326.92a2.74,2.74,0,0,0-2.92-2.83H349.13a2.74,2.74,0,0,0-2.92,2.83c.24,3.24.47,6.48.71,9.72h42.31Z"/><path class="cls-4" d="M389.66,336.43H346.49q.78,10.69,1.55,21.39h40.07Q388.88,347.13,389.66,336.43Z"/><path class="cls-5" d="M348.43,357.61q.69,9.54,1.39,19.09a3,3,0,0,0,2.75,2.83h31a3,3,0,0,0,2.75-2.83q.71-9.56,1.39-19.09Z"/><path class="cls-5" d="M377.37,349.17a9.79,9.79,0,0,1-2.8.36,9.6,9.6,0,0,1-1.41-.13l-.34-.08-.34-.08-.34-.1-.33-.11-.17-.06-.16-.07-.32-.13-.32-.16-.15-.07-.15-.09-.3-.17-.29-.19c-.2-.12-.38-.26-.56-.39l-.5-.38-.25-.17-.26-.17c-.18-.1-.35-.21-.54-.3l-.27-.13-.28-.12a7,7,0,0,0-1.17-.38,7.4,7.4,0,0,0-1.23-.16,7.88,7.88,0,0,0-2.5.28,9.13,9.13,0,0,0-1.21.42,7.25,7.25,0,0,0-1.14.59,7.74,7.74,0,0,1,1.08-.71,10,10,0,0,1,1.19-.56,8.25,8.25,0,0,1,2.57-.55,7.62,7.62,0,0,1,1.35,0,8.59,8.59,0,0,1,1.32.27l.33.1.32.12c.21.08.41.18.62.27l.3.16a2.85,2.85,0,0,1,.3.16l.58.34c.17.1.34.21.52.3l.27.14.28.12.14.06.14.05.28.1.28.09.14,0,.15,0a7.31,7.31,0,0,0,2.33.18,8.54,8.54,0,0,0,2.27-.54,10.18,10.18,0,0,0,1.06-.49l.5-.29.12-.09c-.62-2.63-5-4.67-10.35-4.67-5.76,0-10.43,2.38-10.43,5.32s4.67,5.32,10.43,5.32c4.5,0,8.34-1.46,9.8-3.5Z"/><rect class="cls-4" x="339.08" y="310.46" width="58" height="15.96" rx="7.98"/><path class="cls-5" d="M463.2,346.25H411.25c-1.75,0,11.13,21,14.84,24s3.71,14,3.71,14h14.84s0-10.92,3.71-14S464.94,346.25,463.2,346.25Z"/><path class="cls-5" d="M455.89,385.66H418.56a.55.55,0,1,1,0-1.1h37.33a.55.55,0,0,1,0,1.1Z"/><path class="cls-5" d="M447.86,387.29H426.69a.55.55,0,0,1-.55-.54.55.55,0,0,1,.55-.55h21.17a.55.55,0,0,1,.55.55A.55.55,0,0,1,447.86,387.29Z"/><path class="cls-5" d="M440.15,315.69a31.94,31.94,0,0,0-1.43,3.67,17.39,17.39,0,0,0-.79,3.69,7.59,7.59,0,0,0,.45,3.57,5.23,5.23,0,0,0,1,1.57l.37.35c.13.11.28.21.41.31a1.14,1.14,0,0,0,.23.15l.23.14.56.35a6.47,6.47,0,0,1,1.88,1.74,5.81,5.81,0,0,1,.87,2,6.74,6.74,0,0,1,.17,1,8.06,8.06,0,0,1,0,1,9.16,9.16,0,0,1-.27,1.95,16.27,16.27,0,0,1-1.41,3.75c-.31.6-.66,1.2-1,1.79a18.68,18.68,0,0,1-1.27,1.73,34.21,34.21,0,0,0,1.36-3.68,20.4,20.4,0,0,0,.8-3.7,11.21,11.21,0,0,0,.07-1.83c0-.3-.06-.6-.09-.9a6.77,6.77,0,0,0-.21-.89,5.25,5.25,0,0,0-.8-1.65,5.1,5.1,0,0,0-1.48-1.35l-.51-.32-.3-.18-.29-.2c-.17-.14-.36-.27-.52-.41l-.46-.45a5.56,5.56,0,0,1-1.17-1.93,5.83,5.83,0,0,1-.36-2,9.23,9.23,0,0,1,.18-2,14.69,14.69,0,0,1,1.4-3.75,20.74,20.74,0,0,1,1.08-1.79A18.49,18.49,0,0,1,440.15,315.69Z"/><path class="cls-5" d="M431.63,326.39a18.7,18.7,0,0,0-.89,2.27,11,11,0,0,0-.49,2.29,4.88,4.88,0,0,0,.28,2.21,3.18,3.18,0,0,0,.64,1l.22.21.26.2.14.09.14.09.35.21a4,4,0,0,1,1.17,1.08,3.66,3.66,0,0,1,.54,1.22c.05.21.07.41.1.62s0,.41,0,.61a6.17,6.17,0,0,1-.16,1.21,10.42,10.42,0,0,1-.88,2.32,12.79,12.79,0,0,1-.65,1.11,10.76,10.76,0,0,1-.78,1.07,21,21,0,0,0,.84-2.28,12.52,12.52,0,0,0,.5-2.29,7.24,7.24,0,0,0,0-1.14c0-.19,0-.37-.05-.56a4.72,4.72,0,0,0-.13-.54,3.17,3.17,0,0,0-1.42-1.87l-.31-.19-.19-.12-.18-.12-.32-.26-.29-.27a3.72,3.72,0,0,1-.73-1.2,3.8,3.8,0,0,1-.22-1.23,5.49,5.49,0,0,1,.12-1.22,8.89,8.89,0,0,1,.87-2.33q.3-.56.66-1.11A11.45,11.45,0,0,1,431.63,326.39Z"/><path class="cls-5" d="M462.05,368.3a11,11,0,1,1,11-11A11,11,0,0,1,462.05,368.3Zm0-19.86a8.84,8.84,0,1,0,8.84,8.84A8.85,8.85,0,0,0,462.05,348.44Z"/><path class="cls-5" d="M535.2,346.25h-52c-1.75,0,11.13,21,14.84,24s3.71,14,3.71,14h14.84s0-10.92,3.71-14S536.94,346.25,535.2,346.25Z"/><path class="cls-5" d="M527.89,385.66H490.56a.55.55,0,1,1,0-1.1h37.33a.55.55,0,0,1,0,1.1Z"/><path class="cls-5" d="M519.86,387.29H498.69a.55.55,0,0,1-.55-.54.55.55,0,0,1,.55-.55h21.17a.55.55,0,0,1,.55.55A.55.55,0,0,1,519.86,387.29Z"/><path class="cls-5" d="M512.15,315.69a31.94,31.94,0,0,0-1.43,3.67,17.39,17.39,0,0,0-.79,3.69,7.59,7.59,0,0,0,.45,3.57,5.23,5.23,0,0,0,1,1.57l.37.35c.13.11.28.21.41.31a1.14,1.14,0,0,0,.23.15l.23.14.56.35a6.47,6.47,0,0,1,1.88,1.74,5.81,5.81,0,0,1,.87,2,6.74,6.74,0,0,1,.17,1,8.06,8.06,0,0,1,0,1,9.16,9.16,0,0,1-.27,1.95,16.27,16.27,0,0,1-1.41,3.75c-.31.6-.66,1.2-1,1.79a18.68,18.68,0,0,1-1.27,1.73,34.21,34.21,0,0,0,1.36-3.68,20.4,20.4,0,0,0,.8-3.7,11.21,11.21,0,0,0,.07-1.83c0-.3-.06-.6-.09-.9a6.77,6.77,0,0,0-.21-.89,5.25,5.25,0,0,0-.8-1.65,5.1,5.1,0,0,0-1.48-1.35l-.51-.32-.3-.18-.29-.2c-.17-.14-.36-.27-.52-.41l-.46-.45a5.56,5.56,0,0,1-1.17-1.93,5.83,5.83,0,0,1-.36-2,9.23,9.23,0,0,1,.18-2,14.69,14.69,0,0,1,1.4-3.75,20.74,20.74,0,0,1,1.08-1.79A18.49,18.49,0,0,1,512.15,315.69Z"/><path class="cls-5" d="M503.63,326.39a18.7,18.7,0,0,0-.89,2.27,11,11,0,0,0-.49,2.29,4.88,4.88,0,0,0,.28,2.21,3.18,3.18,0,0,0,.64,1l.22.21.26.2.14.09.14.09.35.21a4,4,0,0,1,1.17,1.08,3.66,3.66,0,0,1,.54,1.22c.05.21.07.41.1.62s0,.41,0,.61a6.17,6.17,0,0,1-.16,1.21,10.42,10.42,0,0,1-.88,2.32,12.79,12.79,0,0,1-.65,1.11,10.76,10.76,0,0,1-.78,1.07,21,21,0,0,0,.84-2.28,12.52,12.52,0,0,0,.5-2.29,7.24,7.24,0,0,0,0-1.14c0-.19,0-.37-.05-.56a4.72,4.72,0,0,0-.13-.54,3.17,3.17,0,0,0-1.42-1.87l-.31-.19-.19-.12-.18-.12-.32-.26-.29-.27a3.72,3.72,0,0,1-.73-1.2,3.8,3.8,0,0,1-.22-1.23,5.49,5.49,0,0,1,.12-1.22,8.89,8.89,0,0,1,.87-2.33q.3-.56.66-1.11A11.45,11.45,0,0,1,503.63,326.39Z"/><path class="cls-5" d="M534.05,368.3a11,11,0,1,1,11-11A11,11,0,0,1,534.05,368.3Zm0-19.86a8.84,8.84,0,1,0,8.84,8.84A8.85,8.85,0,0,0,534.05,348.44Z"/><path class="cls-5" d="M240.91,279.69H190.84c-6.15,4.75-10.13,13.5-13,23.33h76C251,293.19,247.06,284.44,240.91,279.69Z"/><path class="cls-5" d="M162.92,381.69H268.83l-7-37.81c-2-9-3.58-23.75-7-37.2H176.9c-3.41,13.45-5,28.2-7,37.2Z"/><path class="cls-4" d="M230.63,352.41H201.09c-1,0,6.33,11.92,8.44,13.66s2.11,7.94,2.11,7.94h8.44s0-6.21,2.11-7.94S231.62,352.41,230.63,352.41Z"/><path class="cls-4" d="M226.47,374.81H205.25a.3.3,0,0,1-.31-.31.31.31,0,0,1,.31-.31h21.22a.31.31,0,0,1,.31.31A.31.31,0,0,1,226.47,374.81Z"/><path class="cls-4" d="M221.91,375.75h-12a.31.31,0,0,1-.31-.31.31.31,0,0,1,.31-.31h12a.31.31,0,0,1,.31.31A.31.31,0,0,1,221.91,375.75Z"/><path class="cls-4" d="M217.52,335a17.17,17.17,0,0,0-.81,2.08,9.86,9.86,0,0,0-.45,2.1,4.25,4.25,0,0,0,.26,2,2.79,2.79,0,0,0,.58.89l.21.2.23.18a.57.57,0,0,0,.13.08l.13.08.32.2a3.67,3.67,0,0,1,1.07,1,3.25,3.25,0,0,1,.49,1.12,2.84,2.84,0,0,1,.1.57,5.19,5.19,0,0,1,0,.56,5.29,5.29,0,0,1-.15,1.11,9.59,9.59,0,0,1-.8,2.12,10.47,10.47,0,0,1-.6,1,9.58,9.58,0,0,1-.72,1,22.32,22.32,0,0,0,.78-2.1,11.09,11.09,0,0,0,.45-2.1,7.24,7.24,0,0,0,0-1c0-.17,0-.34,0-.51a2.8,2.8,0,0,0-.12-.5,3.13,3.13,0,0,0-.45-.94,2.87,2.87,0,0,0-.85-.77l-.28-.18-.18-.11-.16-.11c-.1-.08-.21-.15-.3-.23s-.18-.17-.26-.26a3.2,3.2,0,0,1-.67-1.1,3.41,3.41,0,0,1-.2-1.13,5.25,5.25,0,0,1,.1-1.12,8.61,8.61,0,0,1,.8-2.13c.18-.34.39-.68.61-1A11.3,11.3,0,0,1,217.52,335Z"/><path class="cls-4" d="M212.68,341.12a11.5,11.5,0,0,0-.51,1.29,6,6,0,0,0-.27,1.3,2.69,2.69,0,0,0,.15,1.26,1.8,1.8,0,0,0,.36.55l.13.12.15.12.08.05.08.05.2.12a2.44,2.44,0,0,1,.66.61,2.06,2.06,0,0,1,.31.7c0,.11,0,.23.06.35s0,.23,0,.35a3.09,3.09,0,0,1-.09.68,5.59,5.59,0,0,1-.5,1.32,5,5,0,0,1-.37.63,5.24,5.24,0,0,1-.44.61q.27-.64.48-1.29a7.66,7.66,0,0,0,.28-1.31,3.43,3.43,0,0,0,0-.64c0-.11,0-.21,0-.32s0-.21-.07-.31a1.94,1.94,0,0,0-.28-.58,1.85,1.85,0,0,0-.52-.48l-.18-.11-.11-.07-.1-.07-.19-.14-.16-.16a1.88,1.88,0,0,1-.41-.68,2.16,2.16,0,0,1-.13-.7,3.11,3.11,0,0,1,.07-.69,4.75,4.75,0,0,1,.49-1.33,7,7,0,0,1,.38-.63A6.38,6.38,0,0,1,212.68,341.12Z"/><path class="cls-4" d="M230,365a6.27,6.27,0,1,1,6.26-6.27A6.27,6.27,0,0,1,230,365Zm0-11.3a5,5,0,1,0,5,5A5,5,0,0,0,230,353.65Z"/><rect class="cls-4" x="203.53" y="283.35" width="24.7" height="9.15"/><circle class="cls-4" cx="207.88" cy="298.67" r="2.06"/><circle class="cls-4" cx="215.87" cy="298.67" r="2.06"/><circle class="cls-4" cx="223.89" cy="298.67" r="2.06"/></g></g></svg>