<?xml version="1.0" encoding="utf-8"?>
<!-- Generator: Adobe Illustrator 24.0.1, SVG Export Plug-In . SVG Version: 6.00 Build 0)  -->
<svg version="1.1" id="Layer_1" xmlns="http://www.w3.org/2000/svg" xmlns:xlink="http://www.w3.org/1999/xlink" x="0px" y="0px"
	 viewBox="0 0 1366 768" style="enable-background:new 0 0 1366 768;" xml:space="preserve">
<style type="text/css">
	.st0{fill:#800000;}
</style>
<g>
	<g>
		<path class="st0" d="M624.7,407.9c-60.1,0-109-48.9-109-109v-44h223h-5v44c0,18.8-4.9,37.3-14.1,53.6l-6.2,11l-1.1,0.2l-1.1,1.4
			C690.4,392.3,658.9,407.9,624.7,407.9z M725.7,359.6c3.4-1.3,7.9-3.1,13.6-5.6c-5.5,2.4-10.6,4.5-15,6.1L725.7,359.6z
			 M800.6,321.6c13.5-8.3,24.9-16.4,32.9-23.3c0.2-0.2,0.4-0.4,0.6-0.5C827.2,303.9,816.6,311.8,800.6,321.6z M847.2,279.9
			 M847.2,279.9 M847.2,279.8c0-12.7-7.3-19.4-14.8-22.6C839.3,260.1,847.2,266.3,847.2,279.8z M822.3,254.9c0,0,0.1,0,0.2,0
			C822.4,254.9,822.3,254.9,822.3,254.9z"/>
		<path d="M728.7,259.9v39c0,17.9-4.6,35.6-13.4,51.1l-5.1,9l-0.7,0.2l-2.2,2.9c-9.5,12.4-21.9,22.7-35.8,29.7
			c-14.6,7.4-30.3,11.1-46.8,11.1c-57.3,0-104-46.7-104-104v-39H728.7 M738.7,249.9h-228v49c0,63,51,114,114,114h0
			c36.9,0,69.7-17.5,90.5-44.7c0.2-0.1,0.5-0.1,0.7-0.2c15.1-3.6,48.9-19.4,78.6-36.9c38.3-22.5,57.7-39.8,57.7-51.2
			c0-22.8-19.5-29.6-29.8-30L738.7,249.9L738.7,249.9L738.7,249.9z M723.9,355c9.4-16.6,14.7-35.7,14.7-56.1v-39H822
			c2.5,0.1,20.1,1.8,20.1,20c0,0.7-0.6,4.9-11.9,14.7c-14.3,12.3-40,28.5-68.7,43.2C745.6,346,732.9,351.6,723.9,355L723.9,355z"/>
	</g>
	<g>
		<g>
			<path d="M502,488.1c0-11.3,6.3-20.6,18-21.7V458c-17.4,1.1-28.6,13.6-28.6,30.6c0,17.6,11.3,29.4,28.6,29.5v-8.4
				C509.6,508.6,502,500.6,502,488.1z"/>
		</g>
		<path d="M570.3,491.7c0,18.4-12.7,26.4-24.7,26.4c-13.4,0-23.8-9.9-23.8-25.6c0-16.6,10.9-26.4,24.6-26.4
			C560.7,466.2,570.3,476.5,570.3,491.7z M530.9,492.3c0,10.9,6.3,19.1,15.1,19.1c8.6,0,15.1-8.1,15.1-19.3
			c0-8.4-4.2-19.1-14.9-19.1C535.5,473,530.9,482.8,530.9,492.3z"/>
		<path d="M612.4,517v-42.8h-20.8V517h-8.9v-42.8h-7v-6.9h7v-1.6c0-7,1.6-13,5.5-16.9c2.9-2.9,7-4.6,12.5-4.6c2.9,0,5.5,0.9,7.1,1.7
			l-1.8,6.7c-1.3-0.6-3.3-1.2-5.3-1.2c-7.1,0-9,6.1-9,13.9v2.2h20.8V465c0-7,1.6-13.3,5.8-17.3c3.4-3.3,7.9-4.6,12-4.6
			c3.3,0,6,0.7,7.7,1.4l-1.1,7c-1.4-0.6-3.2-1.1-5.8-1.1c-7.6,0-9.6,6.8-9.6,14.4v2.7h12v6.9h-11.9V517H612.4z"/>
		<path d="M645.3,493.8c0.2,12.2,8,17.2,17,17.2c6.5,0,10.4-1.1,13.8-2.6l1.5,6.5c-3.2,1.4-8.6,3.1-16.5,3.1
			c-15.3,0-24.4-10.1-24.4-25s8.8-26.8,23.3-26.8c16.2,0,20.5,14.3,20.5,23.4c0,1.8-0.2,3.3-0.3,4.2H645.3z M671.7,487.3
			c0.1-5.7-2.4-14.7-12.5-14.7c-9.1,0-13.1,8.4-13.9,14.7H671.7z"/>
		<path d="M696.7,493.8c0.2,12.2,8,17.2,17,17.2c6.5,0,10.4-1.1,13.8-2.6l1.5,6.5c-3.2,1.4-8.6,3.1-16.5,3.1
			c-15.3,0-24.4-10.1-24.4-25s8.8-26.8,23.3-26.8c16.2,0,20.5,14.3,20.5,23.4c0,1.8-0.2,3.3-0.3,4.2H696.7z M723.1,487.3
			c0.1-5.7-2.4-14.7-12.5-14.7c-9.1,0-13.1,8.4-13.9,14.7H723.1z"/>
		<path d="M753.1,455.4h-21v-7.6h51.2v7.6h-21.1V517h-9V455.4z"/>
		<path d="M833.5,447.8h8.9v33.4h0.3c1.8-2.7,3.7-5.1,5.4-7.4l21.1-26h11.1l-25,29.4l27,39.8h-10.6L849,483l-6.6,7.6V517h-8.9V447.8
			z"/>
		<g>
			<polygon points="799.9,509.5 799.9,484.6 826,484.6 826,477.2 799.9,477.2 799.9,455.3 826,455.3 826,447.8 791,447.8 791,517 
				826,517 826,509.5 			"/>
		</g>
	</g>
	<g>
		<path class="st0" d="M889,428.9H477c-1.7,0-3-1.3-3-3s1.3-3,3-3h412c1.7,0,3,1.3,3,3S890.7,428.9,889,428.9z"/>
	</g>
</g>
</svg>
